<?xml version="1.0" encoding="UTF-8"?>
<svg xmlns="http://www.w3.org/2000/svg" xmlns:xlink="http://www.w3.org/1999/xlink" width="177px" height="62px" viewBox="0 0 177 62" version="1.1">
<g id="surface1">
<path style=" stroke:none;fill-rule:nonzero;fill:rgb(14.901961%,30.19608%,89.411765%);fill-opacity:1;" d="M 176.871094 12.183594 L 160.757812 57.011719 L 88.328125 62 L 16.097656 57.019531 L 0 12.183594 Z M 176.871094 12.183594 "/>
<path style=" stroke:none;fill-rule:nonzero;fill:rgb(16.078432%,39.607844%,94.509804%);fill-opacity:1;" d="M 146.960938 54.160156 L 160.730469 15.851562 L 88.433594 15.851562 L 88.433594 58.1875 Z M 146.960938 54.160156 "/>
<path style=" stroke:none;fill-rule:nonzero;fill:rgb(92.156863%,92.156863%,92.156863%);fill-opacity:1;" d="M 36.898438 32.480469 L 38.886719 37.976562 L 88.433594 37.976562 L 88.433594 32.480469 Z M 36.898438 32.480469 "/>
<path style=" stroke:none;fill-rule:nonzero;fill:rgb(92.156863%,92.156863%,92.156863%);fill-opacity:1;" d="M 88.433594 21.347656 L 32.914062 21.347656 L 34.925781 26.847656 L 88.433594 26.847656 Z M 88.433594 21.347656 "/>
<path style=" stroke:none;fill-rule:nonzero;fill:rgb(92.156863%,92.156863%,92.156863%);fill-opacity:1;" d="M 88.433594 52.480469 L 88.433594 46.761719 L 88.339844 46.765625 L 63.679688 45.113281 L 62.101562 40.726562 L 39.875 40.726562 L 42.976562 49.363281 L 88.332031 52.488281 Z M 88.433594 52.480469 "/>
<path style=" stroke:none;fill-rule:nonzero;fill:rgb(0%,0%,0%);fill-opacity:1;" d="M 41.625 0 L 68.445312 0 L 68.445312 2.785156 L 52.839844 2.785156 L 52.839844 5.570312 L 68.445312 5.570312 L 68.445312 8.355469 L 41.625 8.355469 Z M 41.625 0 "/>
<path style=" stroke:none;fill-rule:nonzero;fill:rgb(0%,0%,0%);fill-opacity:1;" d="M 73.808594 0 L 100.625 0 L 100.625 2.421875 L 85.023438 2.421875 L 85.023438 2.90625 L 100.625 2.90625 L 100.625 8.476562 L 73.808594 8.476562 L 73.808594 5.933594 L 89.410156 5.933594 L 89.410156 5.449219 L 73.808594 5.449219 Z M 73.808594 0 "/>
<path style=" stroke:none;fill-rule:nonzero;fill:rgb(0%,0%,0%);fill-opacity:1;" d="M 105.988281 0 L 132.808594 0 L 132.808594 2.421875 L 117.203125 2.421875 L 117.203125 2.90625 L 132.808594 2.90625 L 132.808594 8.476562 L 105.988281 8.476562 L 105.988281 5.933594 L 121.59375 5.933594 L 121.59375 5.449219 L 105.988281 5.449219 Z M 105.988281 0 "/>
<path style=" stroke:none;fill-rule:nonzero;fill:rgb(100%,100%,100%);fill-opacity:1;" d="M 115.625 37.976562 L 113.054688 45.109375 L 88.359375 46.765625 L 88.359375 52.484375 L 133.75 49.363281 L 134.085938 48.433594 L 139.289062 33.957031 L 139.828125 32.480469 L 143.824219 21.347656 L 88.359375 21.347656 L 88.359375 26.847656 L 119.558594 26.847656 L 117.542969 32.480469 L 88.359375 32.480469 L 88.359375 37.976562 Z M 115.625 37.976562 "/>
</g>
</svg>
