<?xml version="1.0" encoding="UTF-8"?>
<svg xmlns="http://www.w3.org/2000/svg" xmlns:xlink="http://www.w3.org/1999/xlink" width="177px" height="62px" viewBox="0 0 177 62" version="1.1">
<g id="surface1">
<path style=" stroke:none;fill-rule:nonzero;fill:rgb(0%,34.901962%,61.176473%);fill-opacity:1;" d="M 174.75 46.546875 C 176.136719 45.796875 177 44.953125 177 44.195312 L 177 17.867188 C 177 17.109375 176.136719 16.265625 174.75 15.515625 L 88.5 31.03125 Z M 174.75 46.546875 "/>
<path style=" stroke:none;fill-rule:nonzero;fill:rgb(0%,26.666668%,50.980395%);fill-opacity:1;" d="M 96.164062 61.492188 L 169.335938 48.332031 C 171.445312 47.953125 173.359375 47.296875 174.75 46.546875 L 88.5 31.03125 L 2.25 46.546875 C 3.640625 47.296875 5.558594 47.953125 7.664062 48.332031 L 80.835938 61.492188 C 85.050781 62.253906 91.949219 62.253906 96.164062 61.492188 Z M 96.164062 61.492188 "/>
<path style=" stroke:none;fill-rule:nonzero;fill:rgb(39.607844%,60.392159%,82.352942%);fill-opacity:1;" d="M 174.75 15.515625 C 173.359375 14.765625 171.441406 14.109375 169.335938 13.730469 L 96.164062 0.570312 C 91.949219 -0.191406 85.050781 -0.191406 80.835938 0.570312 L 7.664062 13.730469 C 3.449219 14.488281 0 16.351562 0 17.867188 L 0 44.195312 C 0 44.953125 0.863281 45.796875 2.25 46.546875 Z M 174.75 15.515625 "/>
<path style=" stroke:none;fill-rule:nonzero;fill:rgb(100%,100%,100%);fill-opacity:1;" d="M 88.5 49.414062 C 55.96875 49.414062 29.5 41.167969 29.5 31.03125 C 29.5 20.894531 55.96875 12.648438 88.5 12.648438 C 109.492188 12.648438 129.070312 16.167969 139.59375 21.832031 L 114.058594 26.4375 C 108.792969 23.601562 99 21.839844 88.5 21.839844 C 72.234375 21.839844 59 25.964844 59 31.03125 C 59 36.101562 72.234375 40.222656 88.5 40.222656 C 99 40.222656 108.792969 38.460938 114.0625 35.625 L 139.59375 40.226562 C 129.074219 45.894531 109.492188 49.414062 88.5 49.414062 Z M 88.5 49.414062 "/>
<path style=" stroke:none;fill-rule:nonzero;fill:rgb(100%,100%,100%);fill-opacity:1;" d="M 147.5 30.011719 L 140.945312 30.011719 L 140.945312 27.96875 L 134.390625 27.96875 L 134.390625 30.011719 L 127.832031 30.011719 L 127.832031 32.054688 L 134.390625 32.054688 L 134.390625 34.09375 L 140.945312 34.09375 L 140.945312 32.054688 L 147.5 32.054688 Z M 147.5 30.011719 "/>
<path style=" stroke:none;fill-rule:nonzero;fill:rgb(100%,100%,100%);fill-opacity:1;" d="M 172.082031 30.011719 L 165.527344 30.011719 L 165.527344 27.96875 L 158.972656 27.96875 L 158.972656 30.011719 L 152.417969 30.011719 L 152.417969 32.054688 L 158.972656 32.054688 L 158.972656 34.09375 L 165.527344 34.09375 L 165.527344 32.054688 L 172.082031 32.054688 Z M 172.082031 30.011719 "/>
</g>
</svg>
