<?xml version="1.0" encoding="UTF-8"?>
<svg xmlns="http://www.w3.org/2000/svg" xmlns:xlink="http://www.w3.org/1999/xlink" width="255px" height="62px" viewBox="0 0 43 62" version="1.1">
<g id="surface1">
<path style=" stroke:none;fill-rule:nonzero;fill:rgb(14.901961%,30.19608%,89.411765%);fill-opacity:1;" d="M 42.96875 12.183594 L 39.054688 57.011719 L 21.457031 62 L 3.910156 57.019531 L 0 12.183594 Z M 42.96875 12.183594 "/>
<path style=" stroke:none;fill-rule:nonzero;fill:rgb(16.078432%,39.607844%,94.509804%);fill-opacity:1;" d="M 35.703125 54.160156 L 39.046875 15.851562 L 21.484375 15.851562 L 21.484375 58.1875 Z M 35.703125 54.160156 "/>
<path style=" stroke:none;fill-rule:nonzero;fill:rgb(92.156863%,92.156863%,92.156863%);fill-opacity:1;" d="M 8.964844 32.480469 L 9.445312 37.976562 L 21.484375 37.976562 L 21.484375 32.480469 Z M 8.964844 32.480469 "/>
<path style=" stroke:none;fill-rule:nonzero;fill:rgb(92.156863%,92.156863%,92.156863%);fill-opacity:1;" d="M 21.484375 21.347656 L 7.996094 21.347656 L 8.484375 26.847656 L 21.484375 26.847656 Z M 21.484375 21.347656 "/>
<path style=" stroke:none;fill-rule:nonzero;fill:rgb(92.156863%,92.156863%,92.156863%);fill-opacity:1;" d="M 21.484375 52.480469 L 21.484375 46.761719 L 21.460938 46.765625 L 15.46875 45.113281 L 15.085938 40.726562 L 9.6875 40.726562 L 10.441406 49.363281 L 21.460938 52.488281 Z M 21.484375 52.480469 "/>
<path style=" stroke:none;fill-rule:nonzero;fill:rgb(0%,0%,0%);fill-opacity:1;" d="M 10.113281 0 L 16.628906 0 L 16.628906 2.785156 L 12.835938 2.785156 L 12.835938 5.570312 L 16.628906 5.570312 L 16.628906 8.355469 L 10.113281 8.355469 Z M 10.113281 0 "/>
<path style=" stroke:none;fill-rule:nonzero;fill:rgb(0%,0%,0%);fill-opacity:1;" d="M 17.929688 0 L 24.445312 0 L 24.445312 2.421875 L 20.65625 2.421875 L 20.65625 2.90625 L 24.445312 2.90625 L 24.445312 8.476562 L 17.929688 8.476562 L 17.929688 5.933594 L 21.722656 5.933594 L 21.722656 5.449219 L 17.929688 5.449219 Z M 17.929688 0 "/>
<path style=" stroke:none;fill-rule:nonzero;fill:rgb(0%,0%,0%);fill-opacity:1;" d="M 25.75 0 L 32.265625 0 L 32.265625 2.421875 L 28.472656 2.421875 L 28.472656 2.90625 L 32.265625 2.90625 L 32.265625 8.476562 L 25.75 8.476562 L 25.75 5.933594 L 29.539062 5.933594 L 29.539062 5.449219 L 25.75 5.449219 Z M 25.75 0 "/>
<path style=" stroke:none;fill-rule:nonzero;fill:rgb(100%,100%,100%);fill-opacity:1;" d="M 28.089844 37.976562 L 27.464844 45.109375 L 21.464844 46.765625 L 21.464844 52.484375 L 32.492188 49.363281 L 32.574219 48.433594 L 33.839844 33.957031 L 33.96875 32.480469 L 34.941406 21.347656 L 21.464844 21.347656 L 21.464844 26.847656 L 29.046875 26.847656 L 28.554688 32.480469 L 21.464844 32.480469 L 21.464844 37.976562 Z M 28.089844 37.976562 "/>
</g>
</svg>
