<?xml version="1.0" encoding="UTF-8"?>
<svg xmlns="http://www.w3.org/2000/svg" xmlns:xlink="http://www.w3.org/1999/xlink" width="255px" height="62px" viewBox="0 0 55 62" version="1.1">
<g id="surface1">
<path style=" stroke:none;fill-rule:nonzero;fill:rgb(0%,34.901962%,61.176473%);fill-opacity:1;" d="M 54.300781 46.546875 C 54.730469 45.796875 55 44.953125 55 44.195312 L 55 17.867188 C 55 17.109375 54.730469 16.265625 54.300781 15.515625 L 27.5 31.03125 Z M 54.300781 46.546875 "/>
<path style=" stroke:none;fill-rule:nonzero;fill:rgb(0%,26.666668%,50.980395%);fill-opacity:1;" d="M 29.882812 61.492188 L 52.617188 48.332031 C 53.273438 47.953125 53.867188 47.296875 54.300781 46.546875 L 27.5 31.03125 L 0.699219 46.546875 C 1.132812 47.296875 1.726562 47.953125 2.382812 48.332031 L 25.117188 61.492188 C 26.429688 62.253906 28.570312 62.253906 29.882812 61.492188 Z M 29.882812 61.492188 "/>
<path style=" stroke:none;fill-rule:nonzero;fill:rgb(39.607844%,60.392159%,82.352942%);fill-opacity:1;" d="M 54.300781 15.515625 C 53.867188 14.765625 53.273438 14.109375 52.617188 13.730469 L 29.882812 0.570312 C 28.570312 -0.191406 26.429688 -0.191406 25.117188 0.570312 L 2.382812 13.730469 C 1.070312 14.488281 0 16.351562 0 17.867188 L 0 44.195312 C 0 44.953125 0.269531 45.796875 0.699219 46.546875 Z M 54.300781 15.515625 "/>
<path style=" stroke:none;fill-rule:nonzero;fill:rgb(100%,100%,100%);fill-opacity:1;" d="M 27.5 49.414062 C 17.390625 49.414062 9.167969 41.167969 9.167969 31.03125 C 9.167969 20.894531 17.390625 12.648438 27.5 12.648438 C 34.023438 12.648438 40.105469 16.167969 43.375 21.832031 L 35.441406 26.4375 C 33.804688 23.601562 30.761719 21.839844 27.5 21.839844 C 22.445312 21.839844 18.332031 25.964844 18.332031 31.03125 C 18.332031 36.101562 22.445312 40.222656 27.5 40.222656 C 30.761719 40.222656 33.804688 38.460938 35.441406 35.625 L 43.378906 40.226562 C 40.105469 45.894531 34.023438 49.414062 27.5 49.414062 Z M 27.5 49.414062 "/>
<path style=" stroke:none;fill-rule:nonzero;fill:rgb(100%,100%,100%);fill-opacity:1;" d="M 45.832031 30.011719 L 43.796875 30.011719 L 43.796875 27.96875 L 41.757812 27.96875 L 41.757812 30.011719 L 39.722656 30.011719 L 39.722656 32.054688 L 41.757812 32.054688 L 41.757812 34.09375 L 43.796875 34.09375 L 43.796875 32.054688 L 45.832031 32.054688 Z M 45.832031 30.011719 "/>
<path style=" stroke:none;fill-rule:nonzero;fill:rgb(100%,100%,100%);fill-opacity:1;" d="M 53.472656 30.011719 L 51.433594 30.011719 L 51.433594 27.96875 L 49.398438 27.96875 L 49.398438 30.011719 L 47.359375 30.011719 L 47.359375 32.054688 L 49.398438 32.054688 L 49.398438 34.09375 L 51.433594 34.09375 L 51.433594 32.054688 L 53.472656 32.054688 Z M 53.472656 30.011719 "/>
</g>
</svg>
